<svg width="143" height="120" viewBox="0 0 143 120" fill="none" xmlns="http://www.w3.org/2000/svg">
<g clip-path="url(#clip0_2059_27)">
<path d="M48.7453 42.065V77.8866H38.7659V58.6204L29.4583 77.8866H19.9587L9.93137 58.2331V77.8866H0V42.065H11.6586L24.6605 68.2051L37.2786 42.065H48.7453Z" fill="#001D66"/>
<path d="M77.7395 56.8293C81.098 56.8293 84.0086 57.0391 86.4715 57.4586C88.9343 57.8781 90.9814 58.7817 92.6126 60.1694C94.2758 61.5571 95.1074 63.6064 95.1074 66.3172C95.1074 71.287 92.9485 74.6433 88.6305 76.386C84.3125 78.1287 79.4667 79 74.0932 79C68.8157 79 63.874 78.1125 59.2681 76.3376C54.6623 74.5304 52.3594 71.1096 52.3594 66.0752L62.6746 65.9783C62.6746 67.7533 63.3462 69.0764 64.6896 69.9478C66.065 70.8191 67.5523 71.3677 69.1515 71.5936C70.7828 71.7873 72.542 71.8841 74.4291 71.8841C77.3077 71.8841 79.7866 71.4645 81.8656 70.6255C83.9446 69.7864 85.0002 68.431 85.0321 66.5592V66.5108C85.0321 65.1231 83.9926 64.2357 81.9136 63.8484C79.8665 63.4289 77.3877 63.2191 74.4771 63.2191H71.5024C67.6642 63.2191 64.4177 63.0255 61.763 62.6382C59.1082 62.2187 56.8693 61.2828 55.0461 59.8306C53.2549 58.3461 52.3594 56.1193 52.3594 53.1503C52.3594 45.0501 59.604 41 74.0932 41C79.2428 41 84.0246 41.8875 88.4386 43.6624C92.8845 45.4374 95.1074 48.8582 95.1074 53.9248H84.8882C84.8882 52.1176 83.8487 50.7461 81.7697 49.8102C79.6906 48.8743 77.1638 48.3418 74.1892 48.2127C70.9587 48.2127 68.208 48.6 65.937 49.3745C63.6981 50.149 62.5786 51.3592 62.5786 53.0051C62.5786 55.5868 66.2889 56.8777 73.7094 56.8777L77.7395 56.8293Z" fill="#001D66"/>
<path d="M143 77.8866H132.781L129.086 71.0127H107.832L104.138 77.8866H93.9189L113.206 42.065H123.761L143 77.8866ZM118.483 51.214L111.767 63.6548H125.152L118.483 51.214Z" fill="#001D66"/>
<path d="M114.202 85C112.723 87.6904 111.016 90.2374 109.103 92.6113C112.016 96.8099 111.301 102.613 107.31 105.963C103.332 109.301 97.5183 109.012 93.8867 105.449C89.217 108.053 84.1044 109.956 78.6904 111.021C78.1792 116.064 73.9205 120 68.7422 120C63.583 120 59.3376 116.093 58.8008 111.076C53.3486 110.036 48.1988 108.145 43.4941 105.546C39.8565 109.015 34.1156 109.27 30.1748 105.963C26.2427 102.663 25.4906 96.983 28.2539 92.8008C26.2779 90.373 24.5188 87.7622 23.001 85H26.4902C27.6398 86.9318 28.9167 88.7789 30.3125 90.5273C33.9581 87.5712 39.3016 87.5121 43.0312 90.6416C46.7519 93.7637 47.625 99.0179 45.3672 103.117C49.561 105.382 54.1225 107.053 58.9395 108.017C59.8596 103.444 63.8985 100 68.7422 100C73.5666 100 77.5919 103.417 78.5332 107.962C83.3339 106.973 87.8775 105.282 92.0527 103C89.8756 98.9182 90.7688 93.7339 94.4541 90.6416C98.1257 87.561 103.36 87.5713 107 90.3926C108.354 88.6843 109.594 86.8821 110.714 85H114.202ZM68.7422 0C73.9202 0 78.1788 3.93551 78.6904 8.97852C84.1043 10.0429 89.2171 11.9465 93.8867 14.5498C97.5182 10.9876 103.332 10.6997 107.31 14.0371C111.301 17.3863 112.016 23.1892 109.104 27.3877C111.018 29.762 112.725 32.3091 114.204 35H110.715C109.595 33.1175 108.354 31.3151 107 29.6064C103.36 32.4282 98.1259 32.4393 94.4541 29.3584C90.7686 26.2659 89.8751 21.0809 92.0527 16.999C87.8776 14.7173 83.3338 13.0259 78.5332 12.0371C77.5923 16.583 73.5669 20 68.7422 20C63.8981 20 59.8592 16.5556 58.9395 11.9824C54.1226 12.9464 49.5609 14.6172 45.3672 16.8818C47.6256 20.9813 46.7513 26.2361 43.0303 29.3584C39.3005 32.4879 33.958 32.4281 30.3125 29.4717C28.9165 31.2203 27.6399 33.0679 26.4902 35H23C24.5178 32.2378 26.2769 29.627 28.2529 27.1992C25.49 23.017 26.2428 17.3364 30.1748 14.0371C34.1154 10.7306 39.8565 10.9844 43.4941 14.4531C48.1987 11.8541 53.3487 9.96284 58.8008 8.92285C59.3381 3.90664 63.5833 2.31097e-05 68.7422 0Z" fill="#4096FF"/>
</g>
<defs>
<clipPath id="clip0_2059_27">
<rect width="143" height="120" fill="white"/>
</clipPath>
</defs>
</svg>
