<svg width="220" height="190" viewBox="0 0 220 190" fill="none" xmlns="http://www.w3.org/2000/svg">
<g clip-path="url(#clip0_2068_164)">
<path d="M87.2453 42.065V77.8866H77.2659V58.6204L67.9583 77.8866H58.4587L48.4314 58.2331V77.8866H38.5V42.065H50.1586L63.1605 68.2051L75.7786 42.065H87.2453Z" fill="white"/>
<path d="M116.24 56.8293C119.598 56.8293 122.509 57.0391 124.971 57.4586C127.434 57.8781 129.481 58.7817 131.113 60.1694C132.776 61.5571 133.607 63.6064 133.607 66.3172C133.607 71.287 131.448 74.6433 127.13 76.386C122.812 78.1287 117.967 79 112.593 79C107.316 79 102.374 78.1125 97.7681 76.3376C93.1623 74.5304 90.8594 71.1096 90.8594 66.0752L101.175 65.9783C101.175 67.7533 101.846 69.0764 103.19 69.9478C104.565 70.8191 106.052 71.3677 107.652 71.5936C109.283 71.7873 111.042 71.8841 112.929 71.8841C115.808 71.8841 118.287 71.4645 120.366 70.6255C122.445 69.7864 123.5 68.431 123.532 66.5592V66.5108C123.532 65.1231 122.493 64.2357 120.414 63.8484C118.367 63.4289 115.888 63.2191 112.977 63.2191H110.002C106.164 63.2191 102.918 63.0255 100.263 62.6382C97.6082 62.2187 95.3693 61.2828 93.5461 59.8306C91.7549 58.3461 90.8594 56.1193 90.8594 53.1503C90.8594 45.0501 98.104 41 112.593 41C117.743 41 122.525 41.8875 126.939 43.6624C131.384 45.4374 133.607 48.8582 133.607 53.9248H123.388C123.388 52.1176 122.349 50.7461 120.27 49.8102C118.191 48.8743 115.664 48.3418 112.689 48.2127C109.459 48.2127 106.708 48.6 104.437 49.3745C102.198 50.149 101.079 51.3592 101.079 53.0051C101.079 55.5868 104.789 56.8777 112.209 56.8777L116.24 56.8293Z" fill="white"/>
<path d="M181.5 77.8866H171.281L167.586 71.0127H146.332L142.638 77.8866H132.419L151.706 42.065H162.261L181.5 77.8866ZM156.983 51.214L150.267 63.6548H163.652L156.983 51.214Z" fill="white"/>
<path d="M152.702 85C151.223 87.6904 149.516 90.2374 147.603 92.6113C150.516 96.8099 149.801 102.613 145.81 105.963C141.832 109.301 136.018 109.012 132.387 105.449C127.717 108.053 122.604 109.956 117.19 111.021C116.679 116.064 112.421 120 107.242 120C102.083 120 97.8376 116.093 97.3008 111.076C91.8486 110.036 86.6988 108.145 81.9941 105.546C78.3565 109.015 72.6156 109.27 68.6748 105.963C64.7427 102.663 63.9906 96.983 66.7539 92.8008C64.7779 90.373 63.0188 87.7622 61.501 85H64.9902C66.1398 86.9318 67.4167 88.7789 68.8125 90.5273C72.4581 87.5712 77.8016 87.5121 81.5312 90.6416C85.2519 93.7637 86.125 99.0179 83.8672 103.117C88.061 105.382 92.6225 107.053 97.4395 108.017C98.3596 103.444 102.398 100 107.242 100C112.067 100 116.092 103.417 117.033 107.962C121.834 106.973 126.378 105.282 130.553 103C128.376 98.9182 129.269 93.7339 132.954 90.6416C136.626 87.561 141.86 87.5713 145.5 90.3926C146.854 88.6843 148.094 86.8821 149.214 85H152.702ZM107.242 0C112.42 0 116.679 3.93551 117.19 8.97852C122.604 10.0429 127.717 11.9465 132.387 14.5498C136.018 10.9876 141.832 10.6997 145.81 14.0371C149.801 17.3863 150.516 23.1892 147.604 27.3877C149.518 29.762 151.225 32.3091 152.704 35H149.215C148.095 33.1175 146.854 31.3151 145.5 29.6064C141.86 32.4282 136.626 32.4393 132.954 29.3584C129.269 26.2659 128.375 21.0809 130.553 16.999C126.378 14.7173 121.834 13.0259 117.033 12.0371C116.092 16.583 112.067 20 107.242 20C102.398 20 98.3592 16.5556 97.4395 11.9824C92.6226 12.9464 88.0609 14.6172 83.8672 16.8818C86.1256 20.9813 85.2513 26.2361 81.5303 29.3584C77.8005 32.4879 72.458 32.4281 68.8125 29.4717C67.4165 31.2203 66.1399 33.0679 64.9902 35H61.5C63.0178 32.2378 64.7769 29.627 66.7529 27.1992C63.99 23.017 64.7428 17.3364 68.6748 14.0371C72.6154 10.7306 78.3565 10.9844 81.9941 14.4531C86.6987 11.8541 91.8487 9.96284 97.3008 8.92285C97.8381 3.90664 102.083 2.31097e-05 107.242 0Z" fill="#4096FF"/>
</g>
<path d="M30.5427 140.8V163H26.6427V147.19L18.9327 163H14.7027L6.42266 146.92V163H2.52266V140.8H7.50266L16.7727 158.77L25.5327 140.8H30.5427ZM46.824 140.32C49.364 140.32 51.644 140.83 53.664 141.85C55.704 142.85 57.294 144.24 58.434 146.02C59.594 147.78 60.174 149.77 60.174 151.99C60.174 154.19 59.594 156.17 58.434 157.93C57.294 159.69 55.714 161.08 53.694 162.1C51.674 163.1 49.394 163.6 46.854 163.6C44.394 163.6 42.134 163.1 40.074 162.1C38.014 161.08 36.384 159.69 35.184 157.93C33.984 156.15 33.384 154.17 33.384 151.99C33.384 149.79 33.984 147.8 35.184 146.02C36.384 144.24 38.004 142.85 40.044 141.85C42.104 140.83 44.364 140.32 46.824 140.32ZM46.824 160.21C48.444 160.21 49.974 159.89 51.414 159.25C52.854 158.61 54.014 157.67 54.894 156.43C55.774 155.19 56.214 153.71 56.214 151.99C56.214 150.31 55.764 148.84 54.864 147.58C53.984 146.32 52.814 145.36 51.354 144.7C49.894 144.04 48.354 143.71 46.734 143.71C44.974 143.71 43.374 144.04 41.934 144.7C40.514 145.36 39.394 146.32 38.574 147.58C37.754 148.82 37.344 150.29 37.344 151.99C37.344 153.73 37.774 155.22 38.634 156.46C39.514 157.7 40.674 158.64 42.114 159.28C43.554 159.9 45.124 160.21 46.824 160.21ZM66.9207 149.23H82.8207V140.8H86.7207V163H82.8207V152.83H66.9207V163H63.0207V140.8H66.9207V149.23ZM108.355 140.8V144.25H94.2254V163H90.3254V140.8H108.355ZM121.355 140.32C123.895 140.32 126.175 140.83 128.195 141.85C130.235 142.85 131.825 144.24 132.965 146.02C134.125 147.78 134.705 149.77 134.705 151.99C134.705 154.19 134.125 156.17 132.965 157.93C131.825 159.69 130.245 161.08 128.225 162.1C126.205 163.1 123.925 163.6 121.385 163.6C118.925 163.6 116.665 163.1 114.605 162.1C112.545 161.08 110.915 159.69 109.715 157.93C108.515 156.15 107.915 154.17 107.915 151.99C107.915 149.79 108.515 147.8 109.715 146.02C110.915 144.24 112.535 142.85 114.575 141.85C116.635 140.83 118.895 140.32 121.355 140.32ZM121.355 160.21C122.975 160.21 124.505 159.89 125.945 159.25C127.385 158.61 128.545 157.67 129.425 156.43C130.305 155.19 130.745 153.71 130.745 151.99C130.745 150.31 130.295 148.84 129.395 147.58C128.515 146.32 127.345 145.36 125.885 144.7C124.425 144.04 122.885 143.71 121.265 143.71C119.505 143.71 117.905 144.04 116.465 144.7C115.045 145.36 113.925 146.32 113.105 147.58C112.285 148.82 111.875 150.29 111.875 151.99C111.875 153.73 112.305 155.22 113.165 156.46C114.045 157.7 115.205 158.64 116.645 159.28C118.085 159.9 119.655 160.21 121.355 160.21ZM158.895 140.8V163H154.995V144.25H144.435C144.035 147.11 143.565 149.69 143.025 151.99C142.505 154.29 141.785 156.51 140.865 158.65C140.245 159.91 139.445 160.92 138.465 161.68C137.485 162.42 136.385 162.86 135.165 163V159.1C136.305 159.1 137.235 158.22 137.955 156.46C139.515 151.82 140.505 146.6 140.925 140.8H158.895ZM175.084 147.64C176.984 147.64 178.644 147.94 180.064 148.54C181.484 149.14 182.584 150.02 183.364 151.18C184.164 152.34 184.564 153.73 184.564 155.35V155.47C184.564 156.95 184.164 158.26 183.364 159.4C182.584 160.54 181.474 161.43 180.034 162.07C178.614 162.69 176.974 163 175.114 163H162.484V140.8H166.384V147.64H175.024H175.084ZM186.274 163V140.8H190.174V163H186.274ZM176.434 159.85C177.174 159.85 177.864 159.67 178.504 159.31C179.164 158.95 179.684 158.42 180.064 157.72C180.464 157.02 180.664 156.19 180.664 155.23C180.664 153.73 180.254 152.61 179.434 151.87C178.634 151.13 177.634 150.76 176.434 150.76H176.404H166.384V159.79C171.124 159.79 174.194 159.81 175.594 159.85H176.434ZM197.673 149.23H213.573V140.8H217.473V163H213.573V152.83H197.673V163H193.773V140.8H197.673V149.23Z" fill="white"/>
<path d="M0.47041 186L3.72041 177.05H5.28291L8.53291 186H7.03291L4.85791 179.688L4.54541 178.662H4.47041L4.14541 179.688L1.97041 186H0.47041ZM4.50791 183.7V182.425H6.52041L6.97041 183.7H4.50791ZM2.04541 183.7L2.49541 182.425H4.50791V183.7H2.04541ZM9.78076 186V177.05H13.3558C13.8808 177.05 14.3433 177.137 14.7433 177.312C15.1433 177.487 15.4558 177.742 15.6808 178.075C15.9141 178.408 16.0308 178.812 16.0308 179.287C16.0308 179.762 15.9183 180.158 15.6933 180.475C15.4683 180.792 15.1849 181.033 14.8433 181.2V181.275C15.2849 181.425 15.6433 181.683 15.9183 182.05C16.1933 182.417 16.3308 182.858 16.3308 183.375C16.3308 183.908 16.2058 184.371 15.9558 184.762C15.7141 185.154 15.3808 185.458 14.9558 185.675C14.5391 185.892 14.0683 186 13.5433 186H9.78076ZM10.5183 181.887V180.675H13.3308C13.6224 180.675 13.8683 180.629 14.0683 180.537C14.2766 180.446 14.4308 180.312 14.5308 180.137C14.6391 179.962 14.6933 179.746 14.6933 179.487C14.6933 179.221 14.6391 179 14.5308 178.825C14.4308 178.65 14.2808 178.521 14.0808 178.437C13.8891 178.346 13.6558 178.3 13.3808 178.3H11.1433V184.737H13.5308C13.8224 184.737 14.0766 184.679 14.2933 184.562C14.5099 184.446 14.6724 184.283 14.7808 184.075C14.8974 183.858 14.9558 183.604 14.9558 183.312C14.9558 183.021 14.8974 182.771 14.7808 182.562C14.6641 182.346 14.4974 182.179 14.2808 182.062C14.0641 181.946 13.7974 181.887 13.4808 181.887H10.5183ZM19.7022 186V177.725H21.0647V186H19.7022ZM16.9772 178.35V177.05H23.7897V178.35H16.9772ZM28.4989 186.2C27.8573 186.2 27.2739 186.088 26.7489 185.862C26.2239 185.629 25.7698 185.304 25.3864 184.887C25.0114 184.471 24.7198 183.979 24.5114 183.412C24.3114 182.846 24.2114 182.217 24.2114 181.525C24.2114 180.833 24.3114 180.204 24.5114 179.637C24.7198 179.071 25.0114 178.579 25.3864 178.162C25.7698 177.737 26.2239 177.412 26.7489 177.187C27.2739 176.962 27.8573 176.85 28.4989 176.85C29.1323 176.85 29.7073 176.962 30.2239 177.187C30.7489 177.412 31.2031 177.733 31.5864 178.15C31.9698 178.567 32.2614 179.062 32.4614 179.637C32.6698 180.204 32.7739 180.833 32.7739 181.525C32.7739 182.217 32.6698 182.85 32.4614 183.425C32.2614 183.992 31.9698 184.483 31.5864 184.9C31.2031 185.308 30.7489 185.629 30.2239 185.862C29.7073 186.088 29.1323 186.2 28.4989 186.2ZM28.4989 184.9C29.0573 184.9 29.5531 184.771 29.9864 184.512C30.4198 184.246 30.7614 183.862 31.0114 183.362C31.2698 182.854 31.3989 182.242 31.3989 181.525C31.3989 180.8 31.2698 180.187 31.0114 179.688C30.7614 179.188 30.4198 178.808 29.9864 178.55C29.5531 178.283 29.0573 178.15 28.4989 178.15C27.9406 178.15 27.4406 178.283 26.9989 178.55C26.5656 178.808 26.2239 179.188 25.9739 179.688C25.7239 180.187 25.5989 180.8 25.5989 181.525C25.5989 182.242 25.7239 182.854 25.9739 183.362C26.2239 183.862 26.5656 184.246 26.9989 184.512C27.4406 184.771 27.9406 184.9 28.4989 184.9ZM34.4634 186V177.05H36.3009L38.7759 183.837H38.8509L41.3384 177.05H43.1759V186H41.8259V180.95L41.9009 179.387H41.8259L39.3634 186H38.2759L35.8009 179.387H35.7259L35.8009 180.95V186H34.4634ZM44.4157 186L47.6657 177.05H49.2282L52.4782 186H50.9782L48.8032 179.688L48.4907 178.662H48.4157L48.0907 179.688L45.9157 186H44.4157ZM48.4532 183.7V182.425H50.4657L50.9157 183.7H48.4532ZM45.9907 183.7L46.4407 182.425H48.4532V183.7H45.9907ZM54.7853 186V177.725H56.1478V186H54.7853ZM52.0603 178.35V177.05H58.8728V178.35H52.0603ZM59.2824 186V185.925L62.7699 181.562L59.4824 177.125V177.05H61.0949L64.1699 181.387H64.2449V177.05H65.6199V181.387H65.6949L68.7574 177.05H70.3824V177.125L67.0824 181.562L70.5699 185.925V186H68.8449L65.6949 181.9H65.6199V186H64.2449V181.9H64.1699L61.0074 186H59.2824ZM72.9797 186.2C72.7964 186.2 72.6297 186.183 72.4797 186.15C72.338 186.125 72.2089 186.088 72.0922 186.038V184.75C72.2672 184.817 72.4214 184.867 72.5547 184.9C72.6964 184.925 72.8214 184.937 72.9297 184.937C73.163 184.937 73.3589 184.879 73.5172 184.762C73.6839 184.646 73.8172 184.475 73.9172 184.25L74.1672 183.612L70.8922 177.05H72.4547L74.8297 181.962H74.8922L76.8672 177.05H78.3172L75.1797 184.612C75.013 185.012 74.8255 185.329 74.6172 185.562C74.4089 185.796 74.1714 185.958 73.9047 186.05C73.638 186.15 73.3297 186.2 72.9797 186.2ZM80.8288 186.2C80.6455 186.2 80.4788 186.183 80.3288 186.15C80.1871 186.125 80.058 186.088 79.9413 186.038V184.75C80.1163 184.817 80.2705 184.867 80.4038 184.9C80.5455 184.925 80.6705 184.937 80.7788 184.937C81.0121 184.937 81.208 184.879 81.3663 184.762C81.533 184.646 81.6663 184.475 81.7663 184.25L82.0163 183.612L78.7413 177.05H80.3038L82.6788 181.962H82.7413L84.7163 177.05H86.1663L83.0288 184.612C82.8621 185.012 82.6746 185.329 82.4663 185.562C82.258 185.796 82.0205 185.958 81.7538 186.05C81.4871 186.15 81.1788 186.2 80.8288 186.2ZM86.7429 186.1C86.6679 186.1 86.5845 186.096 86.4929 186.088C86.4012 186.079 86.322 186.067 86.2554 186.05V184.737C86.322 184.762 86.3887 184.779 86.4554 184.787C86.5304 184.796 86.597 184.8 86.6554 184.8C86.9637 184.8 87.1887 184.658 87.3304 184.375C87.4804 184.092 87.5762 183.683 87.6179 183.15C87.6679 182.608 87.6929 181.962 87.6929 181.212V177.05H93.4804V186H92.1179V178.35H89.0304V181.837C89.0304 182.262 89.0137 182.683 88.9804 183.1C88.947 183.517 88.8845 183.908 88.7929 184.275C88.7095 184.633 88.5845 184.95 88.4179 185.225C88.2512 185.492 88.0304 185.704 87.7554 185.862C87.4887 186.021 87.1512 186.1 86.7429 186.1ZM94.7209 186L97.9709 177.05H99.5334L102.783 186H101.283L99.1084 179.688L98.7959 178.662H98.7209L98.3959 179.688L96.2209 186H94.7209ZM98.7584 183.7V182.425H100.771L101.221 183.7H98.7584ZM96.2959 183.7L96.7459 182.425H98.7584V183.7H96.2959ZM103.894 186.1C103.819 186.1 103.735 186.096 103.644 186.088C103.552 186.079 103.473 186.067 103.406 186.05V184.737C103.473 184.762 103.54 184.779 103.606 184.787C103.681 184.796 103.748 184.8 103.806 184.8C104.115 184.8 104.34 184.658 104.481 184.375C104.631 184.092 104.727 183.683 104.769 183.15C104.819 182.608 104.844 181.962 104.844 181.212V177.05H110.631V186H109.269V178.35H106.181V181.837C106.181 182.262 106.165 182.683 106.131 183.1C106.098 183.517 106.035 183.908 105.944 184.275C105.86 184.633 105.735 184.95 105.569 185.225C105.402 185.492 105.181 185.704 104.906 185.862C104.64 186.021 104.302 186.1 103.894 186.1ZM114.722 186V177.725H116.084V186H114.722ZM111.997 178.35V177.05H118.809V178.35H111.997ZM120.169 186V177.05H121.544V184.712H123.281C123.606 184.712 123.886 184.654 124.119 184.537C124.352 184.421 124.531 184.246 124.656 184.012C124.781 183.779 124.844 183.5 124.844 183.175C124.844 182.842 124.781 182.562 124.656 182.337C124.531 182.104 124.352 181.929 124.119 181.812C123.886 181.696 123.606 181.637 123.281 181.637H120.919V180.375H123.194C123.736 180.375 124.231 180.479 124.681 180.687C125.14 180.896 125.506 181.208 125.781 181.625C126.065 182.033 126.206 182.55 126.206 183.175C126.206 183.8 126.065 184.321 125.781 184.737C125.506 185.154 125.14 185.471 124.681 185.687C124.231 185.896 123.736 186 123.194 186H120.169ZM127.294 186V177.05H128.669V186H127.294ZM130.789 186V177.05H132.152V186H130.789ZM131.527 182.075V180.775H136.814V182.075H131.527ZM136.252 186V177.05H137.614V186H136.252ZM142.935 186V177.05H144.298V186H142.935ZM143.673 182.075V180.775H148.96V182.075H143.673ZM148.398 186V177.05H149.76V186H148.398ZM151.883 186V177.05H153.245V182.125L153.17 183.85H153.245L157.445 177.05H158.795V186H157.445V180.95L157.52 179.237H157.445L153.258 186H151.883ZM160.916 186V177.05H162.279V182.125L162.204 183.85H162.279L166.479 177.05H167.829V186H166.479V180.95L166.554 179.237H166.479L162.291 186H160.916ZM164.354 175.775C163.954 175.775 163.612 175.7 163.329 175.55C163.045 175.4 162.824 175.192 162.666 174.925C162.516 174.65 162.441 174.342 162.441 174H163.454C163.454 174.225 163.524 174.437 163.666 174.637C163.816 174.829 164.045 174.925 164.354 174.925C164.654 174.925 164.874 174.829 165.016 174.637C165.166 174.437 165.241 174.225 165.241 174H166.241C166.241 174.342 166.166 174.65 166.016 174.925C165.866 175.192 165.649 175.4 165.366 175.55C165.083 175.7 164.745 175.775 164.354 175.775ZM169.949 186V177.05H175.199V178.35H171.312V186H169.949ZM183.818 181.525C183.818 182.242 183.718 182.887 183.518 183.462C183.327 184.037 183.048 184.529 182.681 184.937C182.314 185.346 181.877 185.658 181.368 185.875C180.868 186.092 180.314 186.2 179.706 186.2C178.998 186.2 178.381 186.088 177.856 185.862C177.339 185.629 176.918 185.296 176.593 184.862C176.277 184.429 176.06 183.912 175.943 183.312L177.306 183.112C177.389 183.462 177.535 183.771 177.743 184.037C177.952 184.304 178.218 184.517 178.543 184.675C178.868 184.825 179.252 184.9 179.693 184.9C180.052 184.9 180.393 184.837 180.718 184.712C181.052 184.587 181.348 184.392 181.606 184.125C181.864 183.85 182.068 183.496 182.218 183.062C182.368 182.629 182.443 182.104 182.443 181.487C182.443 180.887 182.368 180.375 182.218 179.95C182.068 179.525 181.86 179.179 181.593 178.912C181.335 178.646 181.039 178.454 180.706 178.337C180.381 178.212 180.043 178.15 179.693 178.15C179.018 178.15 178.485 178.308 178.093 178.625C177.702 178.933 177.452 179.333 177.343 179.825L176.031 179.625C176.106 179.025 176.31 178.521 176.643 178.112C176.985 177.696 177.418 177.383 177.943 177.175C178.477 176.958 179.06 176.85 179.693 176.85C180.293 176.85 180.843 176.958 181.343 177.175C181.852 177.392 182.289 177.704 182.656 178.112C183.023 178.512 183.306 179.004 183.506 179.587C183.714 180.162 183.818 180.808 183.818 181.525ZM183.043 180.912V182.137H178.356V180.912H183.043ZM185.513 186V177.05H187.351L189.826 183.837H189.901L192.388 177.05H194.226V186H192.876V180.95L192.951 179.387H192.876L190.413 186H189.326L186.851 179.387H186.776L186.851 180.95V186H185.513ZM196.216 186.1C196.141 186.1 196.057 186.096 195.966 186.088C195.874 186.079 195.795 186.067 195.728 186.05V184.737C195.795 184.762 195.861 184.779 195.928 184.787C196.003 184.796 196.07 184.8 196.128 184.8C196.436 184.8 196.661 184.658 196.803 184.375C196.953 184.092 197.049 183.683 197.091 183.15C197.141 182.608 197.166 181.962 197.166 181.212V177.05H202.953V186H201.591V178.35H198.503V181.837C198.503 182.262 198.486 182.683 198.453 183.1C198.42 183.517 198.357 183.908 198.266 184.275C198.182 184.633 198.057 184.95 197.891 185.225C197.724 185.492 197.503 185.704 197.228 185.862C196.961 186.021 196.624 186.1 196.216 186.1ZM212.456 181.525C212.456 182.242 212.356 182.887 212.156 183.462C211.964 184.037 211.685 184.529 211.319 184.937C210.952 185.346 210.514 185.658 210.006 185.875C209.506 186.092 208.952 186.2 208.344 186.2C207.635 186.2 207.019 186.088 206.494 185.862C205.977 185.629 205.556 185.296 205.231 184.862C204.914 184.429 204.698 183.912 204.581 183.312L205.944 183.112C206.027 183.462 206.173 183.771 206.381 184.037C206.589 184.304 206.856 184.517 207.181 184.675C207.506 184.825 207.889 184.9 208.331 184.9C208.689 184.9 209.031 184.837 209.356 184.712C209.689 184.587 209.985 184.392 210.244 184.125C210.502 183.85 210.706 183.496 210.856 183.062C211.006 182.629 211.081 182.104 211.081 181.487C211.081 180.887 211.006 180.375 210.856 179.95C210.706 179.525 210.498 179.179 210.231 178.912C209.973 178.646 209.677 178.454 209.344 178.337C209.019 178.212 208.681 178.15 208.331 178.15C207.656 178.15 207.123 178.308 206.731 178.625C206.339 178.933 206.089 179.333 205.981 179.825L204.669 179.625C204.744 179.025 204.948 178.521 205.281 178.112C205.623 177.696 206.056 177.383 206.581 177.175C207.114 176.958 207.698 176.85 208.331 176.85C208.931 176.85 209.481 176.958 209.981 177.175C210.489 177.392 210.927 177.704 211.294 178.112C211.66 178.512 211.944 179.004 212.144 179.587C212.352 180.162 212.456 180.808 212.456 181.525ZM211.681 180.912V182.137H206.994V180.912H211.681ZM214.151 186V177.05H219.401V178.35H215.513V186H214.151Z" fill="white"/>
<defs>
<clipPath id="clip0_2068_164">
<rect width="143" height="120" fill="white" transform="translate(38.5)"/>
</clipPath>
</defs>
</svg>
